<svg xmlns="http://www.w3.org/2000/svg" width="18" height="18" viewBox="0 0 18 18">
  <path fill="#B0B0B0" d="M4.76470588,1.05882353 C2.71800357,1.05882353 1.05882353,2.71800357 1.05882353,4.76470588 L1.05882353,13.2352941 C1.05882353,15.2819964 2.71800357,16.9411765 4.76470588,16.9411765 L13.2352941,16.9411765 C15.2819964,16.9411765 16.9411765,15.2819964 16.9411765,13.2352941 L16.9411765,4.76470588 C16.9411765,2.71800357 15.2819964,1.05882353 13.2352941,1.05882353 L4.76470588,1.05882353 Z M4.76470588,0 L13.2352941,0 C15.8667685,-5.28988618e-16 18,2.13323149 18,4.76470588 L18,13.2352941 C18,15.8667685 15.8667685,18 13.2352941,18 L4.76470588,18 C2.13323149,18 2.35106052e-16,15.8667685 0,13.2352941 L0,4.76470588 C-2.93882565e-16,2.13323149 2.13323149,5.87765131e-16 4.76470588,0 Z"/>
</svg>
