<svg xmlns="http://www.w3.org/2000/svg" width="18" height="18" viewBox="0 0 18 18">
  <path fill="#FF5A5F" d="M5,2 C3.34314575,2 2,3.34314575 2,5 L2,13 C2,14.6568542 3.34314575,16 5,16 L13,16 C14.6568542,16 16,14.6568542 16,13 L16,5 C16,3.34314575 14.6568542,2 13,2 L5,2 Z M5,0 L13,0 C15.7614237,0 18,2.23857625 18,5 L18,13 C18,15.7614237 15.7614237,18 13,18 L5,18 C2.23857625,18 0,15.7614237 0,13 L0,5 C-4.4408921e-16,2.23857625 2.23857625,0 5,0 Z M6,4 L12,4 C13.1045695,4 14,4.8954305 14,6 L14,12 C14,13.1045695 13.1045695,14 12,14 L6,14 C4.8954305,14 4,13.1045695 4,12 L4,6 C4,4.8954305 4.8954305,4 6,4 Z"/>
</svg>
